<svg width="88" height="88" viewBox="0 0 88 88" fill="none" xmlns="http://www.w3.org/2000/svg">
<mask id="mask0" mask-type="alpha" maskUnits="userSpaceOnUse" x="0" y="0" width="88" height="88">
<rect width="88" height="88" rx="12" fill="#EAEAE9"/>
</mask>
<g mask="url(#mask0)">
<rect width="88" height="88" rx="12" fill="#FCF7E8"/>
<path d="M56.4094 30.4344C56.028 30.0531 55.4097 30.0531 55.0282 30.4344L53.0751 32.3875C52.6937 32.7689 52.6937 33.3872 53.0751 33.7687C53.4566 34.1501 54.0749 34.15 54.4562 33.7687L56.4094 31.8155C56.7907 31.4342 56.7907 30.8158 56.4094 30.4344Z" fill="#E2AF16"/>
<path d="M32.9719 30.4344C32.5905 30.0531 31.9722 30.0531 31.5907 30.4344L29.6376 32.3875C29.2562 32.7689 29.2562 33.3872 29.6376 33.7687C30.0191 34.1501 30.6374 34.15 31.0187 33.7687L32.9719 31.8155C33.3532 31.4342 33.3532 30.8158 32.9719 30.4344Z" fill="#E2AF16"/>
<path d="M51.5275 26.5281C51.1462 26.1469 50.5278 26.1469 50.1464 26.5281L48.1932 28.4813C47.8119 28.8626 47.8119 29.481 48.1932 29.8624C48.5748 30.2439 49.1931 30.2438 49.5744 29.8624L51.5275 27.9093C51.9089 27.5279 51.9089 26.9096 51.5275 26.5281Z" fill="#E2AF16"/>
<path d="M39.8078 26.5281C39.4265 26.1469 38.8081 26.1469 38.4267 26.5281L36.4735 28.4813C36.0922 28.8626 36.0922 29.481 36.4735 29.8624C36.8551 30.2439 37.4733 30.2438 37.8547 29.8624L39.8078 27.9093C40.1892 27.5279 40.1892 26.9096 39.8078 26.5281Z" fill="#E2AF16"/>
<path d="M44.6906 30.4344C44.3093 30.0531 43.6909 30.0531 43.3095 30.4344L41.3563 32.3875C40.975 32.7689 40.975 33.3872 41.3563 33.7687C41.7379 34.1501 42.3561 34.15 42.7375 33.7687L44.6906 31.8155C45.072 31.4342 45.072 30.8158 44.6906 30.4344Z" fill="#E2AF16"/>
<path d="M69.0004 50.6565C69.0004 49.0411 67.6862 47.7268 66.0707 47.7268H65.0941V44.5793C65.1344 44.5443 65.1754 44.5109 65.2149 44.4748C65.8488 43.897 67.1729 43.5275 68.0362 43.5166C68.5754 43.5099 69.0072 43.0671 69.0003 42.5278C68.9936 41.9928 68.5578 41.5636 68.0241 41.5636C68.02 41.5636 68.0157 41.5636 68.0116 41.5637C67.1736 41.5742 66.0602 41.7967 65.0941 42.2534V39.6935C66.2832 39.2069 67.0737 37.9827 66.904 36.6237C65.7521 27.3649 57.8369 20.3828 48.4924 20.3828H39.508C30.1636 20.3828 22.2484 27.3649 21.0964 36.6233C20.9272 37.9783 21.7123 39.205 22.9063 39.6936V42.2103C21.9366 41.7711 20.8206 41.5514 19.9638 41.5637C19.4245 41.5707 18.9931 42.0137 19.0001 42.553C19.0071 43.088 19.443 43.5167 19.9764 43.5167C19.9807 43.5167 19.9851 43.5167 19.9895 43.5166C20.8627 43.5032 22.2182 43.8681 22.8793 44.4711C22.8881 44.4792 22.8975 44.4868 22.9064 44.4948V47.7268H21.9297C20.3111 47.7268 19 49.0377 19 50.6565C19 52.1082 20.0615 53.316 21.449 53.5461C21.2208 54.1485 21.2044 54.8067 21.416 55.4321C22.6264 59.0009 25.9724 61.3988 29.7423 61.3988H58.2581C62.028 61.3988 65.374 59.0009 66.5847 55.4315C66.7961 54.8067 66.7797 54.1488 66.5516 53.5465C67.9129 53.3226 69.0004 52.138 69.0004 50.6565ZM23.0345 36.8648C24.0652 28.582 31.1472 22.336 39.508 22.336H48.4924C56.8533 22.336 63.9352 28.582 64.9659 36.8653C65.0364 37.4296 64.5961 37.921 64.0522 37.9575C64.0458 37.9579 64.0393 37.9585 64.0329 37.959C64.0162 37.9605 63.9995 37.9611 63.9828 37.9611H24.0176C23.4424 37.9611 22.961 37.4546 23.0345 36.8648ZM59.3556 43.0314C57.2096 41.0745 54.3261 41.0745 52.1801 43.0314C50.7788 44.3092 49.038 44.3092 47.6368 43.0314C45.4908 41.0745 42.6072 41.0745 40.4612 43.0314C39.0599 44.3092 37.3191 44.3092 35.9179 43.0314C33.7719 41.0746 30.8884 41.0744 28.7422 43.0316C27.5546 44.1154 26.1318 44.2874 24.8594 43.5251V39.9142H63.141V43.5817C61.895 44.275 60.5089 44.0831 59.3556 43.0314ZM63.141 45.6997V47.7268H24.8594V45.6704C25.3875 45.8531 25.9294 45.9446 26.4708 45.9445C27.731 45.9445 28.988 45.4515 30.0586 44.4746C31.4598 43.1969 33.2007 43.1969 34.6019 44.4746C36.7479 46.4318 39.6315 46.4317 41.7774 44.4746C43.1787 43.1969 44.9197 43.1969 46.3207 44.4746C48.4668 46.4318 51.3504 46.4317 53.4963 44.4746C54.8975 43.1968 56.6384 43.197 58.0396 44.4746C59.5335 45.8371 61.4091 46.2559 63.141 45.6997ZM64.7348 54.8049C63.7934 57.5806 61.1906 59.4456 58.2581 59.4456H29.7423C26.8098 59.4456 24.2071 57.5806 23.266 54.8055C23.0633 54.2068 23.5802 53.5862 24.2207 53.5862H63.7797C64.4226 53.5862 64.9361 54.2098 64.7348 54.8049ZM66.0707 51.6331H21.9297C21.3912 51.6331 20.9531 51.195 20.9531 50.6565C20.9531 50.1173 21.3905 49.6799 21.9297 49.6799H66.0707C66.6092 49.6799 67.0473 50.118 67.0473 50.6565C67.0473 51.1957 66.6099 51.6331 66.0707 51.6331Z" fill="#E2AF16"/>
</g>
</svg>
