<svg width="32" height="32" viewBox="0 0 32 32" fill="none" xmlns="http://www.w3.org/2000/svg">
<path d="M12.1201 12.0002C12.7674 10.1602 14.6473 9.05536 16.5697 9.3851C18.4921 9.71484 19.8964 11.383 19.8934 13.3335C19.8934 16.0002 15.8935 17.3335 15.8935 17.3335" stroke="#ED5575" stroke-width="2" stroke-linecap="round" stroke-linejoin="round"/>
<path fill-rule="evenodd" clip-rule="evenodd" d="M16.0001 29.3332C23.3639 29.3332 29.3334 23.3636 29.3334 15.9998C29.3334 8.63604 23.3639 2.6665 16.0001 2.6665C8.63628 2.6665 2.66675 8.63604 2.66675 15.9998C2.66675 23.3636 8.63628 29.3332 16.0001 29.3332Z" stroke="#ED5575" stroke-width="2" stroke-linecap="round" stroke-linejoin="round"/>
<path d="M16.8334 22.6668C16.8334 23.1271 16.4603 23.5002 16.0001 23.5002C15.5398 23.5002 15.1667 23.1271 15.1667 22.6668C15.1667 22.2066 15.5398 21.8335 16.0001 21.8335C16.4603 21.8335 16.8334 22.2066 16.8334 22.6668Z" fill="#ED5575" stroke="#ED5575"/>
</svg>
