<svg width="32" height="32" viewBox="0 0 32 32" fill="none" xmlns="http://www.w3.org/2000/svg">
<path d="M4 8H6.66667H28" stroke="white" stroke-width="2" stroke-linecap="round" stroke-linejoin="round"/>
<path d="M26.3332 7.99984C26.3332 7.44755 25.8855 6.99984 25.3332 6.99984C24.7809 6.99984 24.3332 7.44755 24.3332 7.99984H26.3332ZM7.6665 7.99984C7.6665 7.44755 7.21879 6.99984 6.6665 6.99984C6.11422 6.99984 5.6665 7.44755 5.6665 7.99984H7.6665ZM9.6665 7.99984C9.6665 8.55212 10.1142 8.99984 10.6665 8.99984C11.2188 8.99984 11.6665 8.55212 11.6665 7.99984H9.6665ZM20.3332 7.99984C20.3332 8.55212 20.7809 8.99984 21.3332 8.99984C21.8855 8.99984 22.3332 8.55212 22.3332 7.99984H20.3332ZM24.3332 7.99984V26.6665H26.3332V7.99984H24.3332ZM24.3332 26.6665C24.3332 27.587 23.587 28.3332 22.6665 28.3332V30.3332C24.6915 30.3332 26.3332 28.6915 26.3332 26.6665H24.3332ZM22.6665 28.3332H9.33317V30.3332H22.6665V28.3332ZM9.33317 28.3332C8.4127 28.3332 7.6665 27.587 7.6665 26.6665H5.6665C5.6665 28.6915 7.30813 30.3332 9.33317 30.3332V28.3332ZM7.6665 26.6665V7.99984H5.6665V26.6665H7.6665ZM11.6665 7.99984V5.33317H9.6665V7.99984H11.6665ZM11.6665 5.33317C11.6665 4.4127 12.4127 3.6665 13.3332 3.6665V1.6665C11.3081 1.6665 9.6665 3.30813 9.6665 5.33317H11.6665ZM13.3332 3.6665H18.6665V1.6665H13.3332V3.6665ZM18.6665 3.6665C19.587 3.6665 20.3332 4.4127 20.3332 5.33317H22.3332C22.3332 3.30813 20.6915 1.6665 18.6665 1.6665V3.6665ZM20.3332 5.33317V7.99984H22.3332V5.33317H20.3332Z" fill="white"/>
</svg>
