<svg width="78" height="68" viewBox="0 0 78 68" fill="none" xmlns="http://www.w3.org/2000/svg">
<path d="M17.8104 64.3812L16.9071 65.2418L18.1547 65.2418L26.2395 65.2418C27.8396 65.2418 29.397 64.3672 30.8078 62.8674C32.2221 61.3637 33.5345 59.1865 34.6563 56.4584C36.9013 50.999 38.4184 43.2475 38.4184 34.0053C38.4184 24.7631 36.9013 17.0115 34.6563 11.5521C33.5345 8.82401 32.2221 6.64682 30.8078 5.14316C29.397 3.64336 27.8396 2.76878 26.2395 2.76878L18.1547 2.76878L16.9071 2.76878L17.8104 3.62931C20.2961 5.99725 22.4384 10.0686 23.9576 15.3412C25.4735 20.6022 26.3552 27.0118 26.3552 34.0053C26.3552 40.9987 25.4735 47.4083 23.9576 52.6694C22.4384 57.9419 20.2961 62.0133 17.8104 64.3812ZM39.8789 34.0053C39.8789 43.2643 38.3336 51.4933 35.8228 57.3884C34.5671 60.3367 33.0798 62.678 31.4448 64.2752C29.8128 65.8693 28.0568 66.7023 26.2395 66.7023L12.7151 66.7023C12.3117 66.7023 11.9845 66.3754 11.9845 65.9717C11.9845 65.5683 12.3113 65.2418 12.7151 65.2418C14.3152 65.2418 15.8726 64.3672 17.2833 62.8674C18.6977 61.3637 20.0101 59.1865 21.1319 56.4584C23.3769 50.999 24.894 43.2475 24.894 34.0053C24.894 24.7631 23.3769 17.0115 21.1319 11.5521C20.0101 8.82401 18.6977 6.64682 17.2833 5.14316C15.8726 3.64336 14.3152 2.76878 12.7151 2.76878C12.3113 2.76878 11.9845 2.44225 11.9845 2.03887C11.9845 1.63512 12.3117 1.30826 12.7151 1.30826L26.2395 1.30826C28.0568 1.30826 29.8128 2.14121 31.4448 3.73533C33.0798 5.33253 34.5671 7.67383 35.8228 10.6221C38.3336 16.5173 39.8789 24.7462 39.8789 34.0053Z" fill="#132645" stroke="#132645" stroke-width="0.998264"/>
<path d="M20.0879 60.8363L20.088 60.8363C20.167 60.9569 20.2068 61.0964 20.2068 61.2361C20.2068 61.376 20.1668 61.5161 20.088 61.6364C17.8656 65.027 15.3046 66.702 12.7147 66.702C10.2316 66.702 7.83906 65.1932 5.73698 62.2363C3.63675 59.282 1.87664 54.9443 0.667582 49.4621C0.198865 47.3319 0.718653 45.1286 2.09874 43.4106C3.50902 41.6562 5.60391 40.6515 7.8499 40.6515C11.4908 40.6515 14.5161 43.1801 15.128 46.6495C16.1496 52.4553 17.9019 57.4985 20.0879 60.8363ZM2.09352 49.1473L2.09385 49.1488C3.15355 53.9536 4.69145 57.9402 6.49784 60.7391C8.28818 63.5131 10.4261 65.2415 12.7147 65.2415C13.9559 65.2415 15.067 64.7341 16.013 64.0257C16.9581 63.318 17.7646 62.3907 18.4104 61.4975L18.6037 61.2301L18.4334 60.9475C16.3415 57.4762 14.7003 52.6496 13.6889 46.904L13.6889 46.9039C13.1986 44.1231 10.7685 42.112 7.92025 42.112C6.05208 42.112 4.36847 42.9168 3.23688 44.3254L3.23671 44.3256C2.40322 45.3642 1.95972 46.6278 1.95972 47.922C1.95972 48.3313 2.00537 48.7418 2.09352 49.1473Z" fill="#132645" stroke="#132645" stroke-width="0.998264"/>
<path d="M20.0882 7.17427L20.0883 7.1742C20.1673 7.05363 20.2071 6.91418 20.2071 6.77447C20.2071 6.63477 20.1673 6.49532 20.0883 6.37475C17.8658 2.98353 15.3048 1.30849 12.715 1.30849C10.3826 1.30849 8.10369 2.67972 6.06815 5.36545C4.03415 8.04916 2.28976 11.9909 1.03886 16.9753L1.03884 16.9753C0.480385 19.1993 0.967018 21.5048 2.375 23.3103L20.0882 7.17427ZM20.0882 7.17427C18.0361 10.3075 16.4049 14.798 15.3518 20.1397L15.8415 20.2363M20.0882 7.17427L15.8415 20.2363M15.8415 20.2363L15.3518 20.1397C14.6668 23.6142 11.6328 26.1293 8.1478 26.1293M15.8415 20.2363L8.1478 26.1293M18.604 6.78033L18.4337 7.06295C16.503 10.2687 14.943 14.6643 13.9188 19.8572L18.604 6.78033ZM18.604 6.78033L18.4107 6.51298M18.604 6.78033L18.4107 6.51298M18.4107 6.51298C17.7649 5.61986 16.9584 4.69257 16.0133 3.98484C15.0673 3.27643 13.9563 2.76901 12.715 2.76901C10.5505 2.76901 8.52496 4.29616 6.80184 6.79638C5.0665 9.31434 3.56176 12.9217 2.45485 17.3302L2.45482 17.3303M18.4107 6.51298L2.45482 17.3303M2.45482 17.3303C2.33366 17.8134 2.2745 18.3024 2.2745 18.7856C2.2745 20.0894 2.70565 21.3582 3.52675 22.411L2.45482 17.3303ZM8.1478 26.1293C5.87594 26.1293 3.77409 25.1035 2.37507 23.3104L8.1478 26.1293ZM3.52678 22.4111C4.64485 23.8449 6.33069 24.6688 8.14709 24.6688C10.9492 24.6688 13.3702 22.64 13.9188 19.8573L3.52678 22.4111Z" fill="#132645" stroke="#132645" stroke-width="0.998264"/>
<path d="M51.2852 41.8638C54.1093 40.0166 55.9751 36.826 55.9751 33.1995C55.9751 29.5731 54.1093 26.3824 51.2852 24.5353" stroke="#132645" stroke-width="3" stroke-linecap="round"/>
<path d="M55.9756 49.8901C61.4577 46.3317 65.0797 40.1853 65.0797 33.1993C65.0797 26.2134 61.4577 20.0669 55.9756 16.5085" stroke="#132645" stroke-width="3" stroke-linecap="round"/>
<path d="M62.8721 57.8909C71.0121 52.6268 76.3902 43.5341 76.3902 33.1995C76.3902 22.8649 71.0121 13.7722 62.8721 8.50818" stroke="#132645" stroke-width="3" stroke-linecap="round"/>
</svg>
