<svg width="120" height="120" viewBox="0 0 120 120" fill="none" xmlns="http://www.w3.org/2000/svg">
<path opacity="0.3" fill-rule="evenodd" clip-rule="evenodd" d="M84.9652 32.0525L88.0312 18.9125C88.6542 16.2425 91.0346 14.3535 93.7764 14.3535H104.101C107.359 14.3535 110 16.9949 110 20.2531C110 23.5114 107.359 26.1527 104.101 26.1527H98.4579L90.7229 59.2217L86.5686 84.1477C86.4769 84.6982 85.9524 85.067 85.4033 84.9672L22.1181 73.4608C21.7435 73.3927 21.4401 73.1178 21.3355 72.7517L10.0713 33.3272C9.88879 32.6884 10.3685 32.0525 11.0328 32.0525H84.9652Z" fill="#132645"/>
<path fill-rule="evenodd" clip-rule="evenodd" d="M40 97.5C40 101.642 36.6421 105 32.5 105C28.3579 105 25 101.642 25 97.5C25 93.3579 28.3579 90 32.5 90C36.6421 90 40 93.3579 40 97.5ZM85 97.5C85 101.642 81.6421 105 77.5 105C73.3579 105 70 101.642 70 97.5C70 93.3579 73.3579 90 77.5 90C81.6421 90 85 93.3579 85 97.5Z" fill="#132645"/>
</svg>
