<svg width="57" height="49" viewBox="0 0 57 49" fill="none" xmlns="http://www.w3.org/2000/svg">
<path d="M12.8881 46.2385L11.9848 47.099L13.2324 47.099L19.1253 47.099C20.343 47.099 21.5114 46.4338 22.5536 45.3258C23.5994 44.214 24.5637 42.6111 25.3853 40.6132C27.0298 36.614 28.1376 30.9458 28.1376 24.1959C28.1376 17.4461 27.0298 11.7779 25.3853 7.77874C24.5637 5.78076 23.5994 4.17793 22.5536 3.0661C21.5114 1.95812 20.343 1.29285 19.1253 1.29285L13.2324 1.29285L11.9848 1.29285L12.8881 2.15337C14.6751 3.85575 16.2278 6.79714 17.332 10.6295C18.433 14.4503 19.0743 19.1093 19.0743 24.1959C19.0743 29.2826 18.433 33.9416 17.332 37.7624C16.2278 41.5948 14.6751 44.5361 12.8881 46.2385ZM28.9315 24.1959C28.9315 30.9316 27.8071 36.9105 25.9859 41.1865C25.075 43.3252 23.9997 45.0147 22.8248 46.1624C21.653 47.3071 20.4052 47.893 19.1253 47.893L9.26756 47.893C9.0482 47.893 8.87035 47.7152 8.87035 47.4957C8.87035 47.2766 9.04783 47.099 9.26756 47.099C10.4853 47.099 11.6537 46.4338 12.6959 45.3258C13.7416 44.214 14.706 42.6111 15.5276 40.6132C17.1721 36.614 18.2799 30.9458 18.2799 24.1959C18.2799 17.4461 17.1721 11.7779 15.5276 7.77874C14.706 5.78076 13.7416 4.17793 12.6959 3.0661C11.6537 1.95812 10.4853 1.29285 9.26756 1.29285C9.04783 1.29285 8.87035 1.11527 8.87035 0.896145C8.87035 0.676647 9.0482 0.498932 9.26756 0.498932L19.1253 0.498931C20.4052 0.498931 21.653 1.08481 22.8248 2.22947C23.9997 3.3772 25.075 5.06664 25.9859 7.20537C27.8071 11.4814 28.9315 17.4603 28.9315 24.1959Z" fill="#132645" stroke="#132645" stroke-width="0.998264"/>
<path d="M14.5286 43.827L14.5286 43.8269C12.9214 41.373 11.6396 37.6774 10.8933 33.4358C10.459 30.9732 8.31142 29.1758 5.72167 29.1758C4.1257 29.1758 2.63753 29.8894 1.63524 31.1362C0.65474 32.3568 0.286013 33.921 0.618737 35.4332L14.5286 43.827ZM14.5286 43.827C14.5714 43.8923 14.5931 43.968 14.5931 44.0442C14.5931 44.1207 14.5712 44.1968 14.5287 44.2618L14.5286 43.827ZM1.3937 35.2617L1.39403 35.2631C2.16858 38.7751 3.2943 41.6974 4.62247 43.7554C5.93459 45.7884 7.52827 47.099 9.26756 47.099C10.2105 47.099 11.0482 46.7135 11.7527 46.1858C12.4564 45.6589 13.0535 44.9714 13.5287 44.3141L13.722 44.0467L13.5517 43.764C12.0383 41.2527 10.8463 37.7521 10.1109 33.5744L10.1109 33.5742C9.74187 31.4815 7.9134 29.9697 5.77295 29.9697C4.37112 29.9697 3.10484 30.5742 2.25381 31.6335L2.25365 31.6337C1.6271 32.4145 1.29309 33.3653 1.29309 34.3398C1.29309 34.6482 1.32748 34.9571 1.3937 35.2617ZM14.5286 44.2619C12.9213 46.714 11.0908 47.893 9.26756 47.893C7.51837 47.893 5.81039 46.8309 4.29189 44.6949C2.77526 42.5615 1.49778 39.4189 0.618786 35.4335L14.5286 44.2619Z" fill="#132645" stroke="#132645" stroke-width="0.998264"/>
<path d="M14.5286 4.56488L14.5286 4.56482C14.5714 4.49956 14.5931 4.42381 14.5931 4.34762C14.5931 4.27145 14.5714 4.19572 14.5286 4.13048C12.9213 1.67784 11.0908 0.498872 9.26756 0.498872C7.62557 0.498872 6 1.4636 4.53061 3.40234C3.06276 5.33906 1.79735 8.19329 0.888245 11.8157L0.888228 11.8158C0.491321 13.3964 0.837002 15.034 1.83757 16.3171L14.5286 4.56488ZM14.5286 4.56488C13.0199 6.86847 11.8262 10.16 11.0567 14.0632L11.5464 14.1597M14.5286 4.56488L11.5464 14.1597M11.5464 14.1597L11.0567 14.0632C10.5696 16.5334 8.41292 18.3197 5.93858 18.3197M11.5464 14.1597L5.93858 18.3197M13.722 4.34509L13.5518 4.6277C12.1551 6.94673 11.0223 10.1344 10.2777 13.9096L13.722 4.34509ZM13.722 4.34509L13.5287 4.07774M13.722 4.34509L13.5287 4.07774M13.5287 4.07774C13.0535 3.42046 12.4564 2.73292 11.7527 2.20598C11.0482 1.67837 10.2105 1.29278 9.26756 1.29278C7.62274 1.29278 6.11099 2.45147 4.84611 4.2868C3.56901 6.13986 2.46701 8.78589 1.65784 12.0086L1.65781 12.0087M13.5287 4.07774L1.65781 12.0087M1.65781 12.0087C1.56678 12.3717 1.52231 12.7391 1.52231 13.1024C1.52231 14.0828 1.84665 15.0369 2.46366 15.8281L1.65781 12.0087ZM5.93858 18.3197C4.32438 18.3197 2.83174 17.5912 1.83764 16.3172L5.93858 18.3197ZM2.46369 15.8281C3.30424 16.9061 4.57237 17.5258 5.93807 17.5258C8.04686 17.5258 9.8657 15.9997 10.2777 13.9096L2.46369 15.8281Z" fill="#132645" stroke="#132645" stroke-width="0.998264"/>
<path d="M37.381 29.9243C39.4394 28.5779 40.7994 26.2523 40.7994 23.6091C40.7994 20.9658 39.4394 18.6402 37.381 17.2938" stroke="#132645" stroke-width="2" stroke-linecap="round"/>
<path d="M40.7994 35.7749C44.7952 33.1812 47.4353 28.7012 47.4353 23.6092C47.4353 18.5173 44.7952 14.0372 40.7994 11.4436" stroke="#132645" stroke-width="2" stroke-linecap="round"/>
<path d="M45.8264 41.6064C51.7596 37.7695 55.6796 31.142 55.6796 23.6093C55.6796 16.0766 51.7596 9.44908 45.8264 5.61218" stroke="#132645" stroke-width="2" stroke-linecap="round"/>
</svg>
