<svg width="32" height="32" viewBox="0 0 32 32" fill="none" xmlns="http://www.w3.org/2000/svg">
<path fill-rule="evenodd" clip-rule="evenodd" d="M16 20C18.2091 20 20 18.2091 20 16C20 13.7909 18.2091 12 16 12C13.7909 12 12 13.7909 12 16C12 18.2091 13.7909 20 16 20Z" stroke="#132645" stroke-width="2" stroke-linecap="round" stroke-linejoin="round"/>
<path fill-rule="evenodd" clip-rule="evenodd" d="M25.8668 20.0002C25.5037 20.8229 25.6779 21.7839 26.3068 22.4268L26.3868 22.5068C26.8876 23.007 27.1689 23.6857 27.1689 24.3935C27.1689 25.1013 26.8876 25.78 26.3868 26.2802C25.8866 26.7809 25.2079 27.0623 24.5002 27.0623C23.7924 27.0623 23.1137 26.7809 22.6135 26.2802L22.5335 26.2002C21.8906 25.5713 20.9296 25.397 20.1068 25.7602C19.3009 26.1056 18.777 26.8966 18.7735 27.7735V28.0002C18.7735 29.4729 17.5796 30.6668 16.1068 30.6668C14.6341 30.6668 13.4402 29.4729 13.4402 28.0002V27.8802C13.419 26.9771 12.848 26.1786 12.0002 25.8668C11.1774 25.5037 10.2164 25.6779 9.5735 26.3068L9.4935 26.3868C8.99331 26.8876 8.31459 27.1689 7.60683 27.1689C6.89907 27.1689 6.22034 26.8876 5.72016 26.3868C5.21942 25.8866 4.93806 25.2079 4.93806 24.5002C4.93806 23.7924 5.21942 23.1137 5.72016 22.6135L5.80016 22.5335C6.42905 21.8906 6.60329 20.9296 6.24016 20.1068C5.89474 19.3009 5.10369 18.777 4.22683 18.7735H4.00016C2.5274 18.7735 1.3335 17.5796 1.3335 16.1068C1.3335 14.6341 2.5274 13.4402 4.00016 13.4402H4.12016C5.02327 13.419 5.82168 12.848 6.1335 12.0002C6.49662 11.1774 6.32238 10.2164 5.6935 9.5735L5.6135 9.4935C5.11276 8.99331 4.8314 8.31459 4.8314 7.60683C4.8314 6.89907 5.11276 6.22034 5.6135 5.72016C6.11368 5.21942 6.7924 4.93806 7.50016 4.93806C8.20792 4.93806 8.88665 5.21942 9.38683 5.72016L9.46683 5.80016C10.1097 6.42905 11.0707 6.60329 11.8935 6.24016H12.0002C12.8061 5.89474 13.33 5.10369 13.3335 4.22683V4.00016C13.3335 2.5274 14.5274 1.3335 16.0002 1.3335C17.4729 1.3335 18.6668 2.5274 18.6668 4.00016V4.12016C18.6703 4.99702 19.1942 5.78807 20.0002 6.1335C20.8229 6.49662 21.7839 6.32238 22.4268 5.6935L22.5068 5.6135C23.007 5.11276 23.6857 4.8314 24.3935 4.8314C25.1013 4.8314 25.78 5.11276 26.2802 5.6135C26.7809 6.11368 27.0623 6.7924 27.0623 7.50016C27.0623 8.20792 26.7809 8.88665 26.2802 9.38683L26.2002 9.46683C25.5713 10.1097 25.397 11.0707 25.7602 11.8935V12.0002C26.1056 12.8061 26.8966 13.33 27.7735 13.3335H28.0002C29.4729 13.3335 30.6668 14.5274 30.6668 16.0002C30.6668 17.4729 29.4729 18.6668 28.0002 18.6668H27.8802C27.0033 18.6703 26.2123 19.1942 25.8668 20.0002Z" stroke="#132645" stroke-width="2" stroke-linecap="round" stroke-linejoin="round"/>
</svg>
